
<svg class="animated" id="freepik_stories-discount" xmlns="http://www.w3.org/2000/svg" viewBox="0 0 500 500" version="1.1" xmlns:xlink="http://www.w3.org/1999/xlink" xmlns:svgjs="http://svgjs.com/svgjs"><g id="freepik--background-complete--inject-6" style="transform-origin: 250px 228.23px 0px;" class="animable"><rect y="382.4" width="500" height="0.25" style="fill: rgb(235, 235, 235); transform-origin: 250px 382.525px 0px;" id="eloh6prk2lpqp" class="animable"></rect><rect x="416.78" y="398.49" width="33.12" height="0.25" style="fill: rgb(235, 235, 235); transform-origin: 433.34px 398.615px 0px;" id="el4zrri6ly3nj" class="animable"></rect><rect x="322.53" y="401.21" width="8.69" height="0.25" style="fill: rgb(235, 235, 235); transform-origin: 326.875px 401.335px 0px;" id="el70udfv5k4qe" class="animable"></rect><rect x="396.59" y="389.21" width="19.19" height="0.25" style="fill: rgb(235, 235, 235); transform-origin: 406.185px 389.335px 0px;" id="elovipyho7tt" class="animable"></rect><rect x="52.46" y="390.89" width="43.19" height="0.25" style="fill: rgb(235, 235, 235); transform-origin: 74.055px 391.015px 0px;" id="el8m0pmrtiysn" class="animable"></rect><rect x="104.56" y="390.89" width="6.33" height="0.25" style="fill: rgb(235, 235, 235); transform-origin: 107.725px 391.015px 0px;" id="elah8iheaxs1g" class="animable"></rect><rect x="131.47" y="395.11" width="93.68" height="0.25" style="fill: rgb(235, 235, 235); transform-origin: 178.31px 395.235px 0px;" id="eltib2uqaqld" class="animable"></rect><path d="M237,337.8H43.91a5.71,5.71,0,0,1-5.7-5.71V60.66A5.71,5.71,0,0,1,43.91,55H237a5.71,5.71,0,0,1,5.71,5.71V332.09A5.71,5.71,0,0,1,237,337.8ZM43.91,55.2a5.46,5.46,0,0,0-5.45,5.46V332.09a5.46,5.46,0,0,0,5.45,5.46H237a5.47,5.47,0,0,0,5.46-5.46V60.66A5.47,5.47,0,0,0,237,55.2Z" style="fill: rgb(235, 235, 235); transform-origin: 140.46px 196.4px 0px;" id="el8a8asn7qpcu" class="animable"></path><path d="M453.31,337.8H260.21a5.72,5.72,0,0,1-5.71-5.71V60.66A5.72,5.72,0,0,1,260.21,55h193.1A5.71,5.71,0,0,1,459,60.66V332.09A5.71,5.71,0,0,1,453.31,337.8ZM260.21,55.2a5.47,5.47,0,0,0-5.46,5.46V332.09a5.47,5.47,0,0,0,5.46,5.46h193.1a5.47,5.47,0,0,0,5.46-5.46V60.66a5.47,5.47,0,0,0-5.46-5.46Z" style="fill: rgb(235, 235, 235); transform-origin: 356.75px 196.4px 0px;" id="elmygoc873r5" class="animable"></path><rect x="307.44" y="131.22" width="5.74" height="119.64" style="fill: rgb(245, 245, 245); transform-origin: 310.31px 191.04px 0px;" id="eltxpthb9cre" class="animable"></rect><rect x="283.34" y="100.65" width="53.93" height="73.5" style="fill: rgb(245, 245, 245); transform-origin: 310.305px 137.4px 0px;" id="eltjwpp2w9vhb" class="animable"></rect><polygon points="192.33 256 207.9 185.17 263.45 194.95 250.32 267.04 192.33 256" style="fill: rgb(235, 235, 235); transform-origin: 227.89px 226.105px 0px;" id="eltaqy9w003kb" class="animable"></polygon><polygon points="140.72 215.25 185.15 205.51 208.79 272.35 154.59 287.74 140.72 215.25" style="fill: rgb(240, 240, 240); transform-origin: 174.755px 246.625px 0px;" id="elugkh2iolw6" class="animable"></polygon><polygon points="225.08 268.54 231.33 214.65 292.8 218.24 290.6 274.63 225.08 268.54" style="fill: rgb(245, 245, 245); transform-origin: 258.94px 244.64px 0px;" id="elvfkhpjzlh6b" class="animable"></polygon><path d="M93.3,378.68H84V223.18H76v155.5H66.7A3.32,3.32,0,0,0,63.38,382H96.62A3.32,3.32,0,0,0,93.3,378.68Z" style="fill: rgb(240, 240, 240); transform-origin: 80px 302.59px 0px;" id="el3u63holws3h" class="animable"></path><path d="M94.64,230.3a32.3,32.3,0,0,1,1.06-27.83c3.76-7.15,7.26-14.58,6.49-16.15-1.59-3.19-3.17-4.72-11.09-5.65-5.18-.61-6.17-3.63-6.24-5.65A3.46,3.46,0,0,1,86,172.38c7.26-6.62,7.66-21.77-4.61-23.72v-.21c-.41,0-.8,0-1.18,0h-.4c-.38,0-.77,0-1.18,0v.21c-12.27,2-11.87,17.1-4.61,23.72A3.46,3.46,0,0,1,75.14,175c-.07,2-1.06,5-6.24,5.65-7.92.93-9.5,2.46-11.09,5.65-.77,1.57,2.73,9,6.49,16.15a32.3,32.3,0,0,1,1.06,27.83,90.31,90.31,0,0,0-7.56,30.85,3.59,3.59,0,0,0,3.59,3.75H98.61a3.59,3.59,0,0,0,3.59-3.75A90.31,90.31,0,0,0,94.64,230.3Z" style="fill: rgb(224, 224, 224); transform-origin: 80px 206.665px 0px;" id="el61xku6igqb5" class="animable"></path><path d="M433.3,378.68H424V223.18h-8v155.5H406.7a3.32,3.32,0,0,0-3.32,3.31h33.24A3.32,3.32,0,0,0,433.3,378.68Z" style="fill: rgb(240, 240, 240); transform-origin: 420px 302.585px 0px;" id="elov4n0ns5i9f" class="animable"></path><path d="M434.64,230.3a32.3,32.3,0,0,1,1.06-27.83c3.76-7.15,7.26-14.58,6.49-16.15-1.59-3.19-3.17-4.72-11.09-5.65-5.18-.61-6.17-3.63-6.24-5.65a3.46,3.46,0,0,1,1.14-2.64c7.26-6.62,7.66-21.77-4.61-23.72v-.21c-.41,0-.8,0-1.18,0h-.4c-.38,0-.77,0-1.18,0v.21c-12.27,2-11.87,17.1-4.61,23.72a3.46,3.46,0,0,1,1.14,2.64c-.07,2-1.06,5-6.24,5.65-7.92.93-9.5,2.46-11.09,5.65-.77,1.57,2.73,9,6.49,16.15a32.3,32.3,0,0,1,1.06,27.83,90.31,90.31,0,0,0-7.56,30.85,3.59,3.59,0,0,0,3.59,3.75h37.22a3.59,3.59,0,0,0,3.59-3.75A90.31,90.31,0,0,0,434.64,230.3Z" style="fill: rgb(224, 224, 224); transform-origin: 420.01px 206.675px 0px;" id="elhulykczt4d" class="animable"></path><rect x="122.01" y="245.99" width="230.17" height="76.01" style="fill: rgb(224, 224, 224); transform-origin: 237.095px 283.995px 0px;" id="elq78oiy0nqf" class="animable"></rect><path d="M327.7,378.68a3.32,3.32,0,0,0-3.32,3.31h33.24a3.32,3.32,0,0,0-3.32-3.31H345V223.18H127v155.5H117.7a3.32,3.32,0,0,0-3.32,3.31h33.24a3.32,3.32,0,0,0-3.32-3.31H135V230.79H337V378.68Z" style="fill: rgb(224, 224, 224); transform-origin: 236px 302.585px 0px;" id="el01k4epzdq0qj" class="animable"></path></g><g id="freepik--Shadow--inject-6" style="transform-origin: 250px 416.24px 0px;" class="animable"><ellipse id="freepik--path--inject-6" cx="250" cy="416.24" rx="193.89" ry="11.32" style="fill: rgb(245, 245, 245); transform-origin: 250px 416.24px 0px;" class="animable"></ellipse></g><g id="freepik--Board--inject-6" style="transform-origin: 388.135px 329.92px 0px;" class="animable"><polygon points="374.8 417.8 392 285.55 395.08 285.55 398.28 285.55 398.46 285.55 400.54 285.55 401.98 285.55 431.72 417.8 428.47 417.8 401.66 300.37 410.53 417.8 406.82 417.8 396.35 299.88 378.98 417.8 374.8 417.8" style="fill: rgb(38, 50, 56); transform-origin: 403.26px 351.675px 0px;" id="elgac6zacc9he" class="animable"></polygon><g id="elx7fone3atl"><polygon points="374.8 417.8 392 285.55 395.08 285.55 398.28 285.55 398.46 285.55 400.54 285.55 401.98 285.55 431.72 417.8 428.47 417.8 401.66 300.37 410.53 417.8 406.82 417.8 396.35 299.88 378.98 417.8 374.8 417.8" style="fill: rgb(255, 255, 255); opacity: 0.6; isolation: isolate; transform-origin: 403.26px 351.675px 0px;" class="animable" id="el9outif9bu0d"></polygon></g><polygon points="342.93 394.9 416.3 394.9 433.34 242.04 359.96 242.04 342.93 394.9" style="fill: #F28930; transform-origin: 388.135px 318.47px 0px;" id="elwfccv0vujui" class="animable"></polygon><g id="el8zl1q00tqr4"><polygon points="342.93 394.9 416.3 394.9 433.34 242.04 359.96 242.04 342.93 394.9" style="fill: rgb(255, 255, 255); opacity: 0.6; isolation: isolate; transform-origin: 388.135px 318.47px 0px;" class="animable" id="elfmtvnrgqos4"></polygon></g><g id="el8exmf6t7ddk"><polygon points="368.53 282.18 368.53 266.63 374.8 273.49 391.34 252.12 400.94 273.49 416.53 261.93 407.03 284.75 416.53 293.32 400.94 298.09 405.4 316.76 388.93 309.14 378.55 326.64 372.22 311.41 361.67 316.24 365.36 301.49 357.98 297.33 364.83 293.32 360.61 284.75 368.53 282.18" style="fill: rgb(255, 255, 255); opacity: 0.6; isolation: isolate; transform-origin: 387.255px 289.38px 0px;" class="animable" id="el93mcow3wdb"></polygon></g><path d="M373.9,282.94c.72-3.17,3.05-4.76,5.45-4.21s3.7,2.87,3,5.9c-.72,3.18-2.9,4.83-5.46,4.24S373.21,286,373.9,282.94Zm2.2.5c-.48,2.13.19,3.15,1.29,3.4s2.27-.41,2.79-2.7c.48-2.1-.29-3.2-1.31-3.43S376.62,281.18,376.1,283.44Zm.47,15.42-2.87-.65,16.11-17,2.86.65Zm8.13-3.48c.72-3.17,3.05-4.76,5.45-4.21s3.7,2.87,3,5.9-2.9,4.82-5.46,4.24S384,298.41,384.7,295.38Zm2.21.5c-.49,2.12.18,3.15,1.28,3.4s2.27-.42,2.79-2.7c.48-2.1-.29-3.2-1.31-3.43S387.42,293.62,386.91,295.88Z" style="fill: #F28930; transform-origin: 383.519px 290.021px 0px;" id="elvgj46vr7jp" class="animable"></path><g id="elt6ggh766sk"><g style="opacity: 0.2; isolation: isolate; transform-origin: 383.519px 290.021px 0px;" class="animable" id="elloi05q7496"><path d="M373.9,282.94c.72-3.17,3.05-4.76,5.45-4.21s3.7,2.87,3,5.9c-.72,3.18-2.9,4.83-5.46,4.24S373.21,286,373.9,282.94Zm2.2.5c-.48,2.13.19,3.15,1.29,3.4s2.27-.41,2.79-2.7c.48-2.1-.29-3.2-1.31-3.43S376.62,281.18,376.1,283.44Zm.47,15.42-2.87-.65,16.11-17,2.86.65Zm8.13-3.48c.72-3.17,3.05-4.76,5.45-4.21s3.7,2.87,3,5.9-2.9,4.82-5.46,4.24S384,298.41,384.7,295.38Zm2.21.5c-.49,2.12.18,3.15,1.28,3.4s2.27-.42,2.79-2.7c.48-2.1-.29-3.2-1.31-3.43S387.42,293.62,386.91,295.88Z" style="fill: rgb(255, 255, 255); transform-origin: 383.519px 290.021px 0px;" id="ellzikvi3jipp" class="animable"></path></g></g><polygon points="367.47 339.49 399.9 339.9 399.9 345.14 367.47 345.14 367.47 339.49" style="fill: rgb(255, 255, 255); transform-origin: 383.685px 342.315px 0px;" id="elsfl8wfy5b2o" class="animable"></polygon><polygon points="357.98 351.67 410.54 351.67 410.54 358.45 355.6 358.24 357.98 351.67" style="fill: rgb(255, 255, 255); transform-origin: 383.07px 355.06px 0px;" id="elne7pbnv1dmh" class="animable"></polygon><g id="elbiutrsuwax"><polygon points="355.6 370.19 354.02 383.95 367.47 383.95 367.47 370.19 355.6 370.19" style="opacity: 0.3; isolation: isolate; transform-origin: 360.745px 377.07px 0px;" class="animable" id="elc88zxecu0e9"></polygon></g><g id="eluzj69w43fzb"><polygon points="375.94 370.19 374.8 383.95 388.93 383.95 388.94 372.25 375.94 370.19" style="opacity: 0.3; isolation: isolate; transform-origin: 381.87px 377.07px 0px;" class="animable" id="el54n9zxh022c"></polygon></g><g id="eldjxdb472n4q"><polygon points="399.9 372.25 397.54 383.95 407.97 383.95 407.97 372.25 399.9 372.25" style="opacity: 0.3; isolation: isolate; transform-origin: 402.755px 378.1px 0px;" class="animable" id="el08h5aaslzsem"></polygon></g></g><g id="freepik--Character--inject-6" style="transform-origin: 136.254px 282.972px 0px;" class="animable animator-active"><path d="M175.9,197.57c9.25-1.66,7.57,31.3,11.19,39.08s26.27,27.81,26.27,27.81,9.83.82,11.39,1.63,1.74,6.58.46,6.58-12,.09-13.59-.77-2.42-4.24-2.42-4.24-23.8-13.94-28.71-25.74c-4.1-9.84-7.94-26.85-9-32.88S173.56,198,175.9,197.57Z" style="fill: rgb(235, 179, 118); transform-origin: 198.668px 235.091px 0px;" id="elxhzupuqmqu" class="animable"></path><path d="M78.48,316.19s5.81-5.81,15.3,1.84,14.51,18.2,30.73,12.66,41,10,46-1.19c0,0-8.4-22.06-24.72-28.87S86.92,309.86,78.48,316.19Z" style="fill: #F28930; transform-origin: 124.495px 316.32px 0px;" id="el0hq52tef59cm" class="animable"></path><path d="M132.4,283.22c-.15,3.63-.52,11.58-1.23,19.76-.93,10.93-2.45,22.28-4.76,24.35-.23.21-.5.45-.8.69-1.13.93-2.74,2.16-4.73,3.62-5,3.67-12.45,8.79-20.5,14.25L97,348.2c-6,4.06-12.25,8.21-18,12-2.25,1.5-4.43,3-6.5,4.31-9.79,6.47-17,11.12-17,11.12l3.21,4.59A93.42,93.42,0,0,1,69,375.38h0c1.89-.76,3.91-1.63,6-2.6,4.24-1.91,8.92-4.18,13.87-6.65,1.46-.73,3-1.47,4.45-2.24,10.84-5.49,22.47-11.78,32-17.91a100.5,100.5,0,0,0,14.17-10.62c2.95-2.78,5-5.38,5.65-7.69,2.11-7,4.09-18,5.55-28.9.74-5.42,1.37-10.77,1.9-15.54Z" style="fill: rgb(235, 179, 118); transform-origin: 104.045px 331.72px 0px;" id="elp8h8xnt8hs" class="animable"></path><path d="M57.16,373c.72-.14,2.13,8.72,2.13,8.72s-4.25,6.6-4.3,12.1-3.84,3.28-5.15-2.55-2.33-10.28-3.26-14.42S49.76,374.44,57.16,373Z" style="fill: #F28930; transform-origin: 52.8699px 384.988px 0px;" id="elhgg4secwk6l" class="animable"></path><g id="elw86u0cubr6"><path d="M154.27,266s-1.35,16.11-3.61,32.74c-1.46,10.88-3.44,21.93-5.55,28.9-.69,2.31-2.7,4.91-5.65,7.69A100.5,100.5,0,0,1,125.29,346c-1.69-4.9-3.2-10-4.41-14.33,2-1.46,3.6-2.69,4.73-3.62.3-.24.57-.48.8-.69,2.31-2.07,3.83-13.42,4.76-24.35,1-11.12,1.31-21.82,1.31-21.82Z" style="opacity: 0.2; isolation: isolate; transform-origin: 137.575px 306px 0px;" class="animable" id="eldclwnu22bl6"></path></g><path d="M157.84,251l-30.6-5c.94.15,6.88-13,8.24-17.7,1.87-6.47,3.33-18.85,2.05-26.86v-.06a6,6,0,0,1,5.39-6.85c2.44-.19,4.88-.28,7.34-.29a102.39,102.39,0,0,1,14.53.86c6.2,1,13.2,2.85,13.2,2.85s1,.41.52,7.07C178.06,211.27,175.71,231.67,157.84,251Z" style="fill: rgb(38, 50, 56); transform-origin: 152.94px 222.616px 0px;" id="elro0mr3iwwb" class="animable"></path><path d="M169.28,188.93s-3.94,2.55-4.62,4.23a1.87,1.87,0,0,0-.1.33,23.23,23.23,0,0,0-.4,2.9c1.15,3.37-3.16,5.3-3.16,5.3-7.68-2.31-9.48-6.05-9.48-6.05,6.32-2.48,7.53-14.59,7.53-14.59l3.06,2.36Z" style="fill: rgb(235, 179, 118); transform-origin: 160.4px 191.37px 0px;" id="el78b37b4lk2c" class="animable"></path><path d="M175.24,370.3l-8.05-17.94L156.25,328l-1.94-4.24-8.47-18.49-10.07-22h-23c3,10.2,9,21.45,15.28,31.38,6.13,9.75,12.48,18.23,16.38,23.23,2.34,3,3.79,4.74,3.79,4.74a306.89,306.89,0,0,0,16,31.22c2.31,4,4.59,7.79,6.77,11.3,8,13,14.44,22.06,14.44,22.06l5-3Z" style="fill: rgb(235, 179, 118); transform-origin: 151.6px 345.235px 0px;" id="elp2uj46glgrc" class="animable"></path><path d="M182.12,404.61c-.28-.67,8.14-3.76,8.14-3.76s7.3,2.9,12.7,1.89,4,3.13-1.51,5.55l-13.53,6C184,416,185,411.59,182.12,404.61Z" style="fill: #F28930; transform-origin: 194.241px 407.754px 0px;" id="elcw8nv125d5n" class="animable"></path><path d="M127.24,246s-16.63,8.32-17.64,30.64C109,289,78.48,316.19,78.48,316.19s1.26,4.48,9.86,4.74,24.69-9.23,36-6.59,10.29,6.86,19.26,5,18.19.48,26.9,10.15c0,0,3.93-32-12.84-55.78,0,0-1.32-6.31.15-22.69Z" style="fill: #F28930; transform-origin: 124.69px 287.745px 0px;" id="elnlxlac971an" class="animable"></path><g id="el0iz3h0sfuv94"><path d="M127.24,246s-16.63,8.32-17.64,30.64C109,289,78.48,316.19,78.48,316.19s1.26,4.48,9.86,4.74,24.69-9.23,36-6.59,10.29,6.86,19.26,5,18.19.48,26.9,10.15c0,0,3.93-32-12.84-55.78,0,0-1.32-6.31.15-22.69Z" style="fill: rgb(255, 255, 255); opacity: 0.6; isolation: isolate; transform-origin: 124.69px 287.745px 0px;" class="animable" id="elvsd32f6l2p"></path></g><polygon points="127.98 244.34 157.84 251.03 157.43 256.41 124.51 247.72 127.98 244.34" style="fill: #F28930; transform-origin: 141.175px 250.375px 0px;" id="eltayinyg0pug" class="animable"></polygon><g id="elhiqms0wx5te"><path d="M148.89,250.86a2,2,0,1,1-2-2A2,2,0,0,1,148.89,250.86Z" style="opacity: 0.2; isolation: isolate; transform-origin: 146.89px 250.86px 0px;" class="animable" id="elahypzhvoola"></path></g><g id="elorf4i4j9qia"><path d="M169.28,188.93s-3.94,2.55-4.62,4.23a1.87,1.87,0,0,0-.1.33,12.86,12.86,0,0,1-5-11l2.56.87Z" style="opacity: 0.2; isolation: isolate; transform-origin: 164.407px 187.99px 0px;" class="animable" id="el8u9cm9c27hq"></path></g><path d="M184.27,177.79a.27.27,0,0,1-.18-.08.25.25,0,0,1,0-.35c1.52-1.31,6.15-6.17,1.86-13.31-3.71-6.19-11.47-4.11-11.55-4.09a.24.24,0,1,1-.13-.47c.08,0,8.19-2.21,12.1,4.31,4.48,7.47-.36,12.55-1.95,13.93A.27.27,0,0,1,184.27,177.79Z" style="fill: rgb(38, 50, 56); transform-origin: 181.158px 168.46px 0px;" id="elsbq3bkt7hu" class="animable"></path><path d="M176.83,160.18s6.49.2,8.28,5.68.46,11.64-9.17,18.28-17.8.26-21.59-4.19-2.81-19.16,7.7-22C173,154.91,176.83,160.18,176.83,160.18Z" style="fill: rgb(38, 50, 56); transform-origin: 169.057px 172.006px 0px;" id="elkl8jp83bhva" class="animable"></path><path d="M170.64,162c8.25,1.12,10.3,5.9,9.75,14.49-.69,10.73-4.08,18-14.09,14.28C152.71,185.79,156.93,160.14,170.64,162Z" style="fill: rgb(235, 179, 118); transform-origin: 169.229px 176.829px 0px;" id="ell2qlihhogci" class="animable"></path><path d="M175.12,175.31a17.79,17.79,0,0,0,1.93,3.75,2.28,2.28,0,0,1-2.3.64Z" style="fill: rgb(213, 135, 69); transform-origin: 175.9px 177.549px 0px;" id="elyg8upi2icxo" class="animable"></path><path d="M170.16,174c-.08.68-.51,1.19-1,1.14s-.76-.65-.68-1.33.5-1.19,1-1.14S170.23,173.27,170.16,174Z" style="fill: rgb(38, 50, 56); transform-origin: 169.319px 173.905px 0px;" id="el2xoza3j3vt2" class="animable"></path><path d="M169.28,172.64l1.55-.42S170,173.38,169.28,172.64Z" style="fill: rgb(38, 50, 56); transform-origin: 170.055px 172.553px 0px;" id="els7peti06dve" class="animable"></path><path d="M178.63,174.76c-.08.68-.51,1.19-1,1.14s-.76-.65-.68-1.33.5-1.19.95-1.14S178.7,174.08,178.63,174.76Z" style="fill: rgb(38, 50, 56); transform-origin: 177.788px 174.665px 0px;" id="ellq8q456hmmf" class="animable"></path><path d="M177.75,173.45l1.55-.42S178.42,174.19,177.75,173.45Z" style="fill: rgb(38, 50, 56); transform-origin: 178.525px 173.363px 0px;" id="elllaym26b5vi" class="animable"></path><path d="M167.1,169.35a.34.34,0,0,1-.26-.11.36.36,0,0,1,0-.5,4.61,4.61,0,0,1,4.08-.84.35.35,0,1,1-.18.68,4.06,4.06,0,0,0-3.42.68A.34.34,0,0,1,167.1,169.35Z" style="fill: rgb(38, 50, 56); transform-origin: 168.96px 168.544px 0px;" id="elkbyo29hocd" class="animable"></path><path d="M180.09,170.19a.35.35,0,0,1-.23-.09,3.56,3.56,0,0,0-2.89-1,.35.35,0,0,1-.15-.69,4.25,4.25,0,0,1,3.51,1.21.35.35,0,0,1-.24.62Z" style="fill: rgb(38, 50, 56); transform-origin: 178.5px 169.31px 0px;" id="elyhgeu2asxi" class="animable"></path><path d="M159.72,174.69s4.79-6.26,4.91-11.57c0,0,17.27-4.45,15.81,12.26,0,0,3.61-14.52-10.53-16.78S153,177.09,159.48,184.28C159.48,184.28,156.76,178.6,159.72,174.69Z" style="fill: rgb(38, 50, 56); transform-origin: 168.507px 171.354px 0px;" id="el1vnxgy4lrip" class="animable"></path><path d="M160.83,176.61a3.64,3.64,0,0,0-3.44-3.83c-2.6-.07-4.53,5,1.66,7.14C159.94,180.22,160.57,179.4,160.83,176.61Z" style="fill: rgb(235, 179, 118); transform-origin: 157.879px 176.379px 0px;" id="eleuywuh2b5he" class="animable"></path><path d="M160.4,159.66a11.54,11.54,0,0,0-5.48-7.12c-4.73-2.9-9.88-1.06-14.23,8.57s-10.68,7.52-13.45,5.14c0,0,.92,4.61,7.39,6.52s10.15-1.37,13.18-6.78a6.49,6.49,0,0,1,8.36-3Z" style="fill: rgb(38, 50, 56); transform-origin: 143.82px 162.302px 0px;" id="elo3bngp6452j" class="animable"></path><path d="M174.31,182.16a21.15,21.15,0,0,0-.83,3,5.24,5.24,0,0,1-.56,0c-2.49-.11-3.6-1-4.09-1.93a3.13,3.13,0,0,1-.32-1.48,2.84,2.84,0,0,1,.11-.87,11.73,11.73,0,0,0,4.84,1.24C174,182.16,174.31,182.16,174.31,182.16Z" style="fill: rgb(38, 50, 56); transform-origin: 171.409px 183.024px 0px;" id="elkyi7xkxzp3" class="animable"></path><path d="M173.46,182.11l-.27.88c-2.35-.11-4-.51-4.68-1.25a2.84,2.84,0,0,1,.11-.87A11.73,11.73,0,0,0,173.46,182.11Z" style="fill: rgb(255, 255, 255); transform-origin: 170.984px 181.93px 0px;" id="elb5d3svlmubc" class="animable"></path><path d="M172.92,185.15c-2.49-.11-3.6-1-4.09-1.93a8.28,8.28,0,0,1,2.74.68A3,3,0,0,1,172.92,185.15Z" style="fill: rgb(222, 87, 83); transform-origin: 170.875px 184.185px 0px;" id="elh7t00at1rim" class="animable"></path><path d="M142.24,174.91a.23.23,0,0,1-.23-.17.26.26,0,0,1,.15-.31c3.15-1.06,4.48-4,5.77-6.78a15.28,15.28,0,0,1,3-5c3.45-3.23,6.19-.6,6.22-.57a.25.25,0,0,1-.35.35c-.1-.1-2.44-2.33-5.54.58a15.22,15.22,0,0,0-2.92,4.79c-1.33,2.91-2.71,5.92-6.05,7.05Z" style="fill: rgb(38, 50, 56); transform-origin: 149.6px 167.976px 0px;" id="elgrjyzwzmdo9" class="animable"></path><path d="M150.6,183.14a.84.84,0,0,0,.62-.36l2.84-4a.86.86,0,0,0-.15-1.15l-3.86-3.3a.89.89,0,0,0-.66-.19l-9.3,1.13a.87.87,0,0,0-.75.9l.39,7.1a.85.85,0,0,0,.93.8Zm1.52-4.73a.57.57,0,0,1,.57-.59.59.59,0,0,1,.6.57.59.59,0,0,1-1.17,0Z" style="fill: #F28930; transform-origin: 146.777px 179.104px 0px;" id="elu7ulgq65cu" class="animable"></path><path d="M146.22,176.05a1.38,1.38,0,0,1,1.59,1.26c0,.73-.56,1.27-1.48,1.29s-1.59-.49-1.61-1.27S145.3,176.06,146.22,176.05Zm0,.67c-.65,0-.89.27-.89.6s.28.63,1,.61.89-.3.89-.61S146.91,176.7,146.23,176.72Zm-4.4,1.22v-.87l6,3.42v.87Zm1.58,2.09a1.4,1.4,0,0,1,1.6,1.27c0,.72-.57,1.26-1.49,1.28s-1.59-.49-1.6-1.27S142.49,180.05,143.41,180Zm0,.67c-.64,0-.89.27-.88.61s.28.62,1,.61.9-.31.89-.62S144.11,180.68,143.42,180.7Z" style="fill: rgb(255, 255, 255); transform-origin: 144.82px 179.307px 0px;" id="elp3mzqa19svo" class="animable"></path><path d="M153.27,178.6a.25.25,0,0,1-.11-.48c.07,0,6.08-3,6.11-7.9a.25.25,0,0,1,.25-.25h0a.25.25,0,0,1,.25.25c0,5.19-6.13,8.22-6.39,8.35A.2.2,0,0,1,153.27,178.6Z" style="fill: rgb(255, 255, 255); transform-origin: 156.389px 174.285px 0px;" id="el8xf3253rswd" class="animable"></path><path d="M158.56,169.83l6.64-12.59A128.4,128.4,0,0,1,181.51,159s2.56,2,1.13,3.33-4.5.37-5.39-.39a6,6,0,0,1-1.35-2.64l-1.59-.2s1.48,3.31-.85,3.23-6.62-1.55-7.45-3.73l-7.22,12.78Z" style="fill: #F28930; transform-origin: 170.817px 164.31px 0px;" id="els14so5skbj8" class="animable"></path><path d="M140.15,195.23c11.37-1.74,12.4,33.4,16.85,41.57S189.27,266,189.27,266s9.07-.85,11,0,2.13,6.91.56,6.91-11.71,1.81-13.69.91-3-4.46-3-4.46-29.24-14.64-35.27-27c-5-10.33-9.75-28.2-11.09-34.54S137.27,195.67,140.15,195.23Z" style="fill: rgb(235, 179, 118); transform-origin: 169.517px 234.619px 0px;" id="elvazcroppma" class="animable"></path><path d="M156.15,214.06l5.69,10.85a1.44,1.44,0,0,0,2.43.19l7.14-9.71a1.43,1.43,0,0,0-1-2.28L157.55,212A1.44,1.44,0,0,0,156.15,214.06Z" style="fill: #F28930; transform-origin: 163.852px 218.838px 0px;" id="el1q2ca56qv79" class="animable"></path><path d="M155.3,218.28v.33a1.45,1.45,0,0,0,1.38,1.45l13.26.63a1.45,1.45,0,0,0,1.5-1.22h0a1.43,1.43,0,0,0-1.32-1.67l-13.27-1A1.44,1.44,0,0,0,155.3,218.28Z" style="fill: rgb(255, 255, 255); transform-origin: 163.38px 218.744px 0px;" id="el2kqw9nc7px7" class="animable"></path></g><g id="freepik--Cart--inject-6" style="transform-origin: 249.168px 309.92px 0px;" class="animable"><path d="M316.41,226.89a1.9,1.9,0,0,0,.81,1.31l8.83,5.91a1.84,1.84,0,0,0,2.48-.38l6.91-8.58a1.87,1.87,0,0,0,.38-1.44l-3-20.09a1.87,1.87,0,0,0-2-1.57l-15.37,1.27a1.85,1.85,0,0,0-1.69,2.08Zm10.35,3a1.26,1.26,0,0,1,1.32,1.21,1.25,1.25,0,0,1-1.2,1.32,1.27,1.27,0,0,1-.12-2.53Z" style="fill: #F28930; transform-origin: 324.793px 218.237px 0px;" id="el5awe1mkd5xp" class="animable"></path><g id="elmd277bd2wdo"><path d="M316.41,226.89a1.9,1.9,0,0,0,.81,1.31l8.83,5.91a1.84,1.84,0,0,0,2.48-.38l6.91-8.58a1.87,1.87,0,0,0,.38-1.44l-3-20.09a1.87,1.87,0,0,0-2-1.57l-15.37,1.27a1.85,1.85,0,0,0-1.69,2.08Zm10.35,3a1.26,1.26,0,0,1,1.32,1.21,1.25,1.25,0,0,1-1.2,1.32,1.27,1.27,0,0,1-.12-2.53Z" style="fill: rgb(255, 255, 255); opacity: 0.6; isolation: isolate; transform-origin: 324.793px 218.237px 0px;" class="animable" id="elxh0h67fri69"></path></g><path d="M331.53,216.94c.1,2.09-1.07,3.47-2.65,3.54s-2.78-1.14-2.87-3.13,1-3.48,2.65-3.56S331.44,215,331.53,216.94Zm-1.45.07c-.06-1.39-.65-1.91-1.38-1.88s-1.33.64-1.26,2.15.73,1.93,1.4,1.9S330.15,218.5,330.08,217Zm-2.93-9.45,1.89-.09L322,220.73l-1.88.09Zm-4.43,3.55c.1,2.08-1.07,3.46-2.65,3.53s-2.77-1.14-2.87-3.13,1-3.48,2.65-3.56S322.63,209.11,322.72,211.11Zm-1.45.06c-.06-1.39-.65-1.91-1.37-1.88s-1.34.65-1.27,2.15.73,1.93,1.4,1.9S321.34,212.66,321.27,211.17Z" style="fill: #F28930; transform-origin: 324.365px 214.145px 0px;" id="elhf9mqpulku" class="animable"></path><path d="M311.88,259.65a.5.5,0,0,1-.16-1c14.92-5,14.72-27.29,14.71-27.51a.5.5,0,1,1,1,0c0,.23.22,23.28-15.4,28.48A.39.39,0,0,1,311.88,259.65Z" style="fill: rgb(38, 50, 56); transform-origin: 319.362px 245.148px 0px;" id="elr0vbk3qmfkr" class="animable"></path><path d="M280.63,252.19h-.13c-.38-.07-9.43-1.71-11.92-5.87a4.33,4.33,0,0,1-.41-3.74c.43-1.31,1.74-3,5.58-3.43,6.5-.79,17.38,2.4,19.41,5.68a.74.74,0,0,1-.24,1,.75.75,0,0,1-1-.24c-1.59-2.56-11.69-5.74-18-5-1.69.2-3.81.78-4.34,2.41a2.9,2.9,0,0,0,.27,2.5c2.14,3.57,10.82,5.15,10.9,5.16a.75.75,0,0,1-.13,1.49Z" style="fill: #F28930; transform-origin: 280.592px 245.609px 0px;" id="elirdlnutu41e" class="animable"></path><polygon points="316.37 241.29 326 302.61 295.46 312.08 280.27 308.45 275.29 252.07 288.96 242.8 316.37 241.29" style="fill: #F28930; transform-origin: 300.645px 276.685px 0px;" id="el7e4sy30h50q" class="animable"></polygon><g id="elwhdeolk0ds"><polygon points="295.46 312.08 288.96 242.8 275.29 252.07 280.27 308.45 295.46 312.08" style="fill: rgb(255, 255, 255); opacity: 0.2; isolation: isolate; transform-origin: 285.375px 277.44px 0px;" class="animable" id="elrj7t9j4q4m"></polygon></g><path d="M295.42,247.14a.75.75,0,0,1-.55-.24c-.23-.24-5.62-6.06-5.36-11.6a7.15,7.15,0,0,1,2.52-5.19A6.66,6.66,0,0,1,299.1,229c5.88,2.14,12,10.26,12.76,15.17a.75.75,0,0,1-1.49.22c-.66-4.47-6.49-12.05-11.78-14a5.18,5.18,0,0,0-5.56.78,5.65,5.65,0,0,0-2,4.14c-.22,4.9,4.91,10.45,5,10.51a.75.75,0,0,1-.55,1.26Z" style="fill: #F28930; transform-origin: 300.685px 237.792px 0px;" id="el3pit2ghk3y1" class="animable"></path><g id="elyva60cz3018"><g style="opacity: 0.2; isolation: isolate; transform-origin: 300.685px 237.792px 0px;" class="animable" id="ely1i9zfcab2"><path d="M295.42,247.14a.75.75,0,0,1-.55-.24c-.23-.24-5.62-6.06-5.36-11.6a7.15,7.15,0,0,1,2.52-5.19A6.66,6.66,0,0,1,299.1,229c5.88,2.14,12,10.26,12.76,15.17a.75.75,0,0,1-1.49.22c-.66-4.47-6.49-12.05-11.78-14a5.18,5.18,0,0,0-5.56.78,5.65,5.65,0,0,0-2,4.14c-.22,4.9,4.91,10.45,5,10.51a.75.75,0,0,1-.55,1.26Z" style="fill: rgb(255, 255, 255); transform-origin: 300.685px 237.792px 0px;" id="eldpkypy3mduf" class="animable"></path></g></g><path d="M259.5,292.31a2.46,2.46,0,0,1-1.37-.41l-25.76-17a2.91,2.91,0,0,0-1.62-.49H183l16.95,13.48a2.5,2.5,0,1,1-3.11,3.91l-22.55-17.93a2.5,2.5,0,0,1,1.56-4.46h54.91a7.85,7.85,0,0,1,4.38,1.32l25.75,17a2.5,2.5,0,0,1-1.38,4.58Z" style="fill: #F28930; transform-origin: 217.672px 280.909px 0px;" id="el0jyphvftm3nm" class="animable"></path><g id="elg67p3jco5p"><g style="opacity: 0.3; isolation: isolate; transform-origin: 217.672px 280.909px 0px;" class="animable" id="elansxtuc8g3j"><path d="M259.5,292.31a2.46,2.46,0,0,1-1.37-.41l-25.76-17a2.91,2.91,0,0,0-1.62-.49H183l16.95,13.48a2.5,2.5,0,1,1-3.11,3.91l-22.55-17.93a2.5,2.5,0,0,1,1.56-4.46h54.91a7.85,7.85,0,0,1,4.38,1.32l25.75,17a2.5,2.5,0,0,1-1.38,4.58Z" id="el0gee2l3dag56" style="transform-origin: 217.672px 280.909px 0px;" class="animable"></path></g></g><polygon points="206.36 330.3 239.01 258 272.69 253.21 280.63 265.47 267.15 346.35 229.1 349.55 206.36 330.3" style="fill: #F28930; transform-origin: 243.495px 301.38px 0px;" id="elaiyxlxmqpig" class="animable"></polygon><g id="els0svg2go3t"><polygon points="206.36 330.3 239.01 258 272.69 253.21 280.63 265.47 267.15 346.35 229.1 349.55 206.36 330.3" style="fill: rgb(255, 255, 255); opacity: 0.6; isolation: isolate; transform-origin: 243.495px 301.38px 0px;" class="animable" id="elhfjsvdkgfjq"></polygon></g><g id="eltdts7bmntj"><polygon points="272.69 253.21 252.12 321.66 206.36 330.3 229.1 349.55 267.15 346.35 280.63 265.47 272.69 253.21" style="opacity: 0.2; isolation: isolate; transform-origin: 243.495px 301.38px 0px;" class="animable" id="el4sk5nuyuo5d"></polygon></g><g id="ela3mlgcc1w25"><polygon points="206.36 330.3 252.12 321.66 267.15 346.35 229.1 349.55 206.36 330.3" style="opacity: 0.2; isolation: isolate; transform-origin: 236.755px 335.605px 0px;" class="animable" id="elca3smk6ky7c"></polygon></g><path d="M247.07,267l-.71,0c-3.65-.12-5.65-.95-6.13-2.53-.84-2.83,4-6.41,5-7.1a.75.75,0,0,1,1,.18.74.74,0,0,1-.18,1c-2.06,1.46-4.78,4.11-4.38,5.45.12.4.82,1.33,4.74,1.46,11.28.41,16.63-9,16.68-9.1a.75.75,0,1,1,1.31.72C264.35,257.24,258.81,267,247.07,267Z" style="fill: rgb(38, 50, 56); transform-origin: 252.329px 261.458px 0px;" id="el6upl091b21y" class="animable"></path><polygon points="269.24 351.6 267.15 279.13 303.95 272.67 321.01 279.13 318.43 345.18 301.22 353.9 269.24 351.6" style="fill: rgb(38, 50, 56); transform-origin: 294.08px 313.285px 0px;" id="elwc44n3dgf6" class="animable"></polygon><g id="elhscdst3mmk"><polygon points="303.95 272.67 301.22 353.9 318.43 345.18 321.01 279.13 303.95 272.67" style="opacity: 0.3; isolation: isolate; transform-origin: 311.115px 313.285px 0px;" class="animable" id="elubgcw8mo1ri"></polygon></g><path d="M285.05,298.24a6.93,6.93,0,0,1-5.1-2.12c-4.45-4.56-3.87-14.88-3.85-15.32a.76.76,0,0,1,.8-.7.74.74,0,0,1,.7.79c0,.1-.57,10.1,3.43,14.18a5.41,5.41,0,0,0,4.31,1.66,5.17,5.17,0,0,0,3.86-1.88c4.24-4.87,3.09-17.21,3.08-17.34a.74.74,0,0,1,.68-.81.73.73,0,0,1,.81.67c.06.53,1.22,13.11-3.44,18.46a6.67,6.67,0,0,1-4.92,2.4Z" style="fill: #F28930; transform-origin: 285.003px 287.468px 0px;" id="elh29iy06rv45" class="animable"></path><g id="el0brn7do9ymyn"><g style="opacity: 0.3; isolation: isolate; transform-origin: 285.003px 287.468px 0px;" class="animable" id="elg9cnk9x471n"><path d="M285.05,298.24a6.93,6.93,0,0,1-5.1-2.12c-4.45-4.56-3.87-14.88-3.85-15.32a.76.76,0,0,1,.8-.7.74.74,0,0,1,.7.79c0,.1-.57,10.1,3.43,14.18a5.41,5.41,0,0,0,4.31,1.66,5.17,5.17,0,0,0,3.86-1.88c4.24-4.87,3.09-17.21,3.08-17.34a.74.74,0,0,1,.68-.81.73.73,0,0,1,.81.67c.06.53,1.22,13.11-3.44,18.46a6.67,6.67,0,0,1-4.92,2.4Z" id="el7794w9fqwcu" style="transform-origin: 285.003px 287.468px 0px;" class="animable"></path></g></g><path d="M337.51,407.17c-1.74-3-6.19-3.7-9.93-1.54S322.21,412,324,415s6.18,3.7,9.92,1.53S339.24,410.18,337.51,407.17Z" style="fill: rgb(38, 50, 56); transform-origin: 330.741px 411.084px 0px;" id="el7zqv5sebdl" class="animable"></path><path d="M243.58,405.63c-3.74,2.17-5.37,6.36-3.63,9.37s6.18,3.7,9.92,1.53,5.37-6.35,3.64-9.36S247.32,403.47,243.58,405.63Z" style="fill: rgb(38, 50, 56); transform-origin: 246.727px 411.084px 0px;" id="elprh98o32d3d" class="animable"></path><path d="M326.51,408.73H245a2.5,2.5,0,0,1,0-5h81.51a1.52,1.52,0,0,0,1.52-1.52v-6.49a1.53,1.53,0,0,0-1.2-1.48l-67.4-14.58A13.25,13.25,0,0,1,249,366.78V354.1a2.5,2.5,0,0,1,5,0v12.68a8.22,8.22,0,0,0,6.44,8l67.41,14.58a6.56,6.56,0,0,1,5.14,6.37v6.49A6.53,6.53,0,0,1,326.51,408.73Z" style="fill: #F28930; transform-origin: 287.745px 380.165px 0px;" id="elkm3nrudi8h" class="animable"></path><g id="el0hyr58m8wtde"><g style="opacity: 0.3; isolation: isolate; transform-origin: 287.745px 380.165px 0px;" class="animable" id="el28z5pqdmfdwj"><path d="M326.51,408.73H245a2.5,2.5,0,0,1,0-5h81.51a1.52,1.52,0,0,0,1.52-1.52v-6.49a1.53,1.53,0,0,0-1.2-1.48l-67.4-14.58A13.25,13.25,0,0,1,249,366.78V354.1a2.5,2.5,0,0,1,5,0v12.68a8.22,8.22,0,0,0,6.44,8l67.41,14.58a6.56,6.56,0,0,1,5.14,6.37v6.49A6.53,6.53,0,0,1,326.51,408.73Z" id="elb81vmjlly47" style="transform-origin: 287.745px 380.165px 0px;" class="animable"></path></g></g><path d="M326.44,322.56l0-.17,2.92-16.14v0l3-16.57a2.51,2.51,0,0,0-2.46-2.94H298.15a2.5,2.5,0,0,0,0,5h9.1l-1.6,11.52H237.17a2.5,2.5,0,1,0,0,5H305l-1.57,11.25H241.32a2.5,2.5,0,1,0,0,5h61.36l-1.62,11.61H245.32a2.5,2.5,0,0,0,0,5h55l-1.46,10.5h-6.47a2.5,2.5,0,1,0,0,5H318.2a2.51,2.51,0,0,0,2.46-2.06l2.79-15.43v0Zm-4.53-3.07h-3.48l2-11.25H324Zm-.9,5-2.1,11.61h-3.4l2-11.61Zm3.84-21.25h-3.57l2-11.52h3.63ZM312.3,291.72h5.93l-2,11.52h-5.51ZM310,308.24h5.33l-2,11.25h-4.92Zm-2.27,16.25h4.74l-2,11.61h-4.33Zm-2.32,16.61h4.15l-1.84,10.5H304Zm7.38,10.5,1.85-10.5H318l-1.9,10.5Z" style="fill: #F28930; transform-origin: 283.534px 321.68px 0px;" id="elr34snphdxt" class="animable"></path><g id="eld95untsmxbu"><g style="opacity: 0.3; isolation: isolate; transform-origin: 283.534px 321.68px 0px;" class="animable" id="elsygk65tuf7"><path d="M326.44,322.56l0-.17,2.92-16.14v0l3-16.57a2.51,2.51,0,0,0-2.46-2.94H298.15a2.5,2.5,0,0,0,0,5h9.1l-1.6,11.52H237.17a2.5,2.5,0,1,0,0,5H305l-1.57,11.25H241.32a2.5,2.5,0,1,0,0,5h61.36l-1.62,11.61H245.32a2.5,2.5,0,0,0,0,5h55l-1.46,10.5h-6.47a2.5,2.5,0,1,0,0,5H318.2a2.51,2.51,0,0,0,2.46-2.06l2.79-15.43v0Zm-4.53-3.07h-3.48l2-11.25H324Zm-.9,5-2.1,11.61h-3.4l2-11.61Zm3.84-21.25h-3.57l2-11.52h3.63ZM312.3,291.72h5.93l-2,11.52h-5.51ZM310,308.24h5.33l-2,11.25h-4.92Zm-2.27,16.25h4.74l-2,11.61h-4.33Zm-2.32,16.61h4.15l-1.84,10.5H304Zm7.38,10.5,1.85-10.5H318l-1.9,10.5Z" id="elh8g5f9f207g" style="transform-origin: 283.534px 321.68px 0px;" class="animable"></path></g></g><path d="M300,287.53a2.48,2.48,0,0,0-1.84-.81H196.41a2.53,2.53,0,0,0-2,.94,2.5,2.5,0,0,0-.48,2.11l3.75,16.47h0l11,48.4a2.5,2.5,0,0,0,2.44,2h81.26a2.51,2.51,0,0,0,2.49-2.28l5.72-64.88A2.49,2.49,0,0,0,300,287.53ZM291.5,336.1H279.9l.51-11.6h12.12Zm-64.38,15.5-1.36-10.5h12.49l.76,10.5Zm14.58-32.1-.82-11.26h16.47V319.5Zm15.65,5v11.6H242.9l-.84-11.6Zm5-16.26h13.77l-.49,11.26H262.35Zm0-5V291.72h14.5l-.51,11.52Zm-5,0H240.52l-.83-11.52h17.66Zm-21.84,0H220.87l-1.49-11.52h15.29Zm.36,5,.81,11.26H223l-1.46-11.26ZM217.93,319.5H205.86l-2.56-11.26h13.17Zm-10.93,5h11.57l1.5,11.6H209.64Zm16.62,0h13.43l.84,11.6H225.12Zm19.64,16.6h14.09v10.5H244Zm19.09,0h12.32l-.46,10.5H262.35Zm0-5V324.5h13.06l-.51,11.6Zm18.28-16.6.5-11.26H294l-1,11.26Zm13.77-16.26h-13l.51-11.52h13.56Zm-80.06-11.52,1.49,11.52H202.16l-2.62-11.52Zm-3.57,49.38h9.95l1.36,10.5h-8.92Zm68.45,10.5.46-10.5h11.38l-.92,10.5Z" style="fill: #F28930; transform-origin: 247.239px 321.68px 0px;" id="el8savg10p67s" class="animable"></path><path d="M286.51,408.73H205a2.5,2.5,0,0,1,0-5h81.51a1.52,1.52,0,0,0,1.52-1.52v-6.49a1.53,1.53,0,0,0-1.2-1.48l-67.4-14.58A13.25,13.25,0,0,1,209,366.78V354.1a2.5,2.5,0,0,1,5,0v12.68a8.22,8.22,0,0,0,6.44,8l67.41,14.58a6.56,6.56,0,0,1,5.14,6.37v6.49A6.53,6.53,0,0,1,286.51,408.73Z" style="fill: #F28930; transform-origin: 247.745px 380.165px 0px;" id="ela0mdxllwd9u" class="animable"></path><g id="eljl4rv3ir9h"><ellipse cx="286.73" cy="411.08" rx="7.83" ry="6.29" style="fill: rgb(38, 50, 56); transform-origin: 286.73px 411.08px 0px; transform: rotate(-30deg);" class="animable" id="eli6nlds7ip6m"></ellipse></g><path d="M288.6,408.94c.86,1.48.06,3.53-1.78,4.59s-4,.73-4.87-.75-.06-3.53,1.78-4.6S287.75,407.46,288.6,408.94Z" style="fill: #F28930; transform-origin: 285.273px 410.855px 0px;" id="el9oo2i71pmts" class="animable"></path><g id="elh6eqr96d39c"><ellipse cx="202.73" cy="411.08" rx="7.83" ry="6.29" style="fill: rgb(38, 50, 56); transform-origin: 202.73px 411.08px 0px; transform: rotate(-30deg);" class="animable" id="elsz1tppu62pl"></ellipse></g><path d="M204.6,408.94c.86,1.48.06,3.53-1.78,4.59s-4,.73-4.87-.75-.06-3.53,1.78-4.6S203.75,407.46,204.6,408.94Z" style="fill: #F28930; transform-origin: 201.273px 410.855px 0px;" id="elz3d4sv782z" class="animable"></path><path d="M238.59,239.58a1.84,1.84,0,0,0,1.53.24L250.35,237a1.85,1.85,0,0,0,1.33-2.13l-2-10.83a1.9,1.9,0,0,0-.84-1.24L231.61,212a1.86,1.86,0,0,0-2.49.48L220.07,225a1.86,1.86,0,0,0,.48,2.64Zm9-5.89a1.26,1.26,0,1,1,.22,1.77A1.26,1.26,0,0,1,247.62,233.69Z" style="fill: #F28930; transform-origin: 235.715px 225.804px 0px;" id="elftcd99qvt55" class="animable"></path><path d="M240.9,221.63c1.64,1.29,1.93,3.08.95,4.32s-2.67,1.36-4.24.13-2-3-1-4.32S239.32,220.41,240.9,221.63Zm-.9,1.15c-1.1-.86-1.87-.75-2.32-.18s-.38,1.43.81,2.36,1.93.7,2.35.17S241.18,223.69,240,222.78Zm-9.08-3.94,1.17-1.49,5.46,14-1.16,1.49Zm-.19,5.67c1.64,1.29,1.93,3.07,1,4.32s-2.68,1.36-4.25.13-2-3-1-4.32S229.16,223.29,230.73,224.51Zm-.89,1.15c-1.1-.86-1.88-.75-2.33-.18s-.38,1.43.81,2.35,1.94.71,2.35.18S231,226.57,229.84,225.66Z" style="fill: rgb(255, 255, 255); transform-origin: 234.178px 225.095px 0px;" id="elxlrhxydmcs8" class="animable"></path><path d="M299.64,304.21a1.84,1.84,0,0,0-1.18-1l-10.21-2.92a1.87,1.87,0,0,0-2.25,1.12l-3.93,10.3a1.89,1.89,0,0,0,.07,1.49l9.07,18.17a1.85,1.85,0,0,0,2.38.89l14.23-5.93a1.86,1.86,0,0,0,1-2.5Zm-10.77.31a1.26,1.26,0,1,1,.74-1.62A1.25,1.25,0,0,1,288.87,304.52Z" style="fill: #F28930; transform-origin: 295.469px 316.313px 0px;" id="elcdkx3hjf4hu" class="animable"></path><g id="el8hkt1wu73il"><path d="M299.64,304.21a1.84,1.84,0,0,0-1.18-1l-10.21-2.92a1.87,1.87,0,0,0-2.25,1.12l-3.93,10.3a1.89,1.89,0,0,0,.07,1.49l9.07,18.17a1.85,1.85,0,0,0,2.38.89l14.23-5.93a1.86,1.86,0,0,0,1-2.5Zm-10.77.31a1.26,1.26,0,1,1,.74-1.62A1.25,1.25,0,0,1,288.87,304.52Z" style="fill: rgb(255, 255, 255); opacity: 0.6; isolation: isolate; transform-origin: 295.469px 316.313px 0px;" class="animable" id="elk6rk9271n"></path></g><path d="M288.31,318.31c-.73-1.95,0-3.62,1.43-4.18s3,.24,3.7,2.11.15,3.6-1.43,4.19S289,320.18,288.31,318.31Zm1.36-.51c.49,1.31,1.21,1.62,1.89,1.37s1.07-1,.54-2.43-1.29-1.61-1.91-1.38S289.15,316.41,289.67,317.8Zm5.69,8.1-1.77.66,2.63-14.78,1.77-.66Zm3.12-4.74c-.73-2,0-3.62,1.44-4.18s3,.24,3.69,2.1.16,3.61-1.42,4.2S299.19,323,298.48,321.16Zm1.36-.51c.49,1.31,1.21,1.62,1.89,1.37s1.07-1,.54-2.43-1.28-1.61-1.91-1.38S299.32,319.26,299.84,320.65Z" style="fill: rgb(38, 50, 56); transform-origin: 295.965px 318.84px 0px;" id="el13v9ju8a1cdh" class="animable"></path><path d="M204,302.33a2.92,2.92,0,0,0,1.58-1.82l4.69-15.88a2.9,2.9,0,0,0-1.72-3.52l-16-6.28a3,3,0,0,0-2.33.09l-28.47,13.86a2.89,2.89,0,0,0-1.41,3.69l9,22.28a2.89,2.89,0,0,0,3.88,1.55Zm-.34-16.8a2,2,0,1,1,2.53,1.18A2,2,0,0,1,203.64,285.53Z" style="fill: rgb(38, 50, 56); transform-origin: 185.257px 295.599px 0px;" id="eltyko3p9irz" class="animable"></path><path d="M182.16,284.46c3.05-1.12,5.65,0,6.49,2.3s-.41,4.66-3.33,5.72-5.62.19-6.52-2.29S179.23,285.52,182.16,284.46Zm.77,2.12c-2.05.75-2.54,1.86-2.16,2.92s1.58,1.69,3.79.88c2-.73,2.53-2,2.17-2.95S185.11,285.79,182.93,286.58Zm-12.71,8.75-1-2.76,23,4.32,1,2.77Zm7.34,4.95c3.06-1.12,5.66,0,6.5,2.3s-.41,4.66-3.33,5.72-5.62.19-6.52-2.29S174.64,301.34,177.56,300.28Zm.78,2.12c-2.05.75-2.55,1.86-2.16,2.92s1.58,1.69,3.78.88c2-.73,2.53-2,2.18-2.95S180.52,301.61,178.34,302.4Z" style="fill: rgb(255, 255, 255); transform-origin: 181.22px 296.383px 0px;" id="elxg42bz8e4" class="animable"></path><path d="M206.36,284.52a.5.5,0,0,1-.1-1c.32-.07,32.05-6.57,36.76-19.6a.5.5,0,0,1,.94.34c-4.9,13.56-36.18,20-37.51,20.24Z" style="fill: #F28930; transform-origin: 224.896px 274.063px 0px;" id="elpisnh7oukwn" class="animable"></path><path d="M266.34,243.93c-9,0-16.72-8-17.09-8.34a.5.5,0,0,1,0-.71.49.49,0,0,1,.7,0c.1.11,10.29,10.59,20.4,7.42a.5.5,0,0,1,.62.33.49.49,0,0,1-.32.63A14.31,14.31,0,0,1,266.34,243.93Z" style="fill: rgb(38, 50, 56); transform-origin: 260.05px 239.331px 0px;" id="ely92z7hoezll" class="animable"></path><path d="M288.42,303.74a.56.56,0,0,1-.32-.11c-.12-.1-2.93-2.5-2.38-8.08a.5.5,0,1,1,1,.09c-.49,5,1.93,7.13,2,7.22a.49.49,0,0,1,.06.7A.48.48,0,0,1,288.42,303.74Z" style="fill: #F28930; transform-origin: 287.274px 299.417px 0px;" id="elx3s70enb6sg" class="animable"></path></g><defs>     <filter id="active" height="200%">         <feMorphology in="SourceAlpha" result="DILATED" operator="dilate" radius="2"></feMorphology>                <feFlood flood-color="#32DFEC" flood-opacity="1" result="PINK"></feFlood>        <feComposite in="PINK" in2="DILATED" operator="in" result="OUTLINE"></feComposite>        <feMerge>            <feMergeNode in="OUTLINE"></feMergeNode>            <feMergeNode in="SourceGraphic"></feMergeNode>        </feMerge>    </filter>    <filter id="hover" height="200%">        <feMorphology in="SourceAlpha" result="DILATED" operator="dilate" radius="2"></feMorphology>                <feFlood flood-color="#ff0000" flood-opacity="0.5" result="PINK"></feFlood>        <feComposite in="PINK" in2="DILATED" operator="in" result="OUTLINE"></feComposite>        <feMerge>            <feMergeNode in="OUTLINE"></feMergeNode>            <feMergeNode in="SourceGraphic"></feMergeNode>        </feMerge>            <feColorMatrix type="matrix" values="0   0   0   0   0                0   1   0   0   0                0   0   0   0   0                0   0   0   1   0 "></feColorMatrix>    </filter></defs></svg>